<?xml version="1.0" encoding="iso-8859-1"?>
<!-- Generator: Adobe Illustrator 19.0.0, SVG Export Plug-In . SVG Version: 6.00 Build 0)  -->
<svg version="1.1" id="Capa_1" xmlns="http://www.w3.org/2000/svg" xmlns:xlink="http://www.w3.org/1999/xlink" x="0px" y="0px"
	 viewBox="0 0 513.28 513.28" style="enable-background:new 0 0 513.28 513.28;" xml:space="preserve">
<g>
	<g>
		<path d="M438.4,58.56c-10.24-10.24-25.6-10.24-35.84,0c-10.24,10.24-10.24,28.16,0,38.4c79.36,89.6,79.36,230.4,0,317.44
			c-10.24,10.24-10.24,28.16,0,38.4c7.68,12.8,25.6,12.8,35.84,0C538.24,345.28,538.24,168.64,438.4,58.56z"/>
	</g>
</g>
<g>
	<g>
		<path d="M110.72,96.96c10.24-10.24,10.24-28.16,0-38.4s-25.6-10.24-35.84,0c-99.84,107.52-99.84,286.72,0,394.24
			c10.24,12.8,28.16,12.8,35.84,0c10.24-10.24,10.24-28.16,0-38.4C31.36,324.8,31.36,184,110.72,96.96z"/>
	</g>
</g>
<g>
	<g>
		<path d="M364.16,137.92c-10.24-10.24-25.6-10.24-35.84,0c-10.24,10.24-10.24,28.16,0,38.4c40.96,43.52,40.96,115.2,0,158.72
			c-10.24,10.24-10.24,28.16,0,38.4c10.24,12.8,28.16,12.8,35.84,2.56C423.04,309.44,423.04,204.48,364.16,137.92z"/>
	</g>
</g>
<g>
	<g>
		<path d="M184.96,173.76c10.24-10.24,10.24-28.16,0-38.4s-25.6-10.24-35.84,0c-58.88,66.56-58.88,171.52,0,238.08
			c7.68,12.8,25.6,12.8,35.84-2.56c10.24-10.24,10.24-28.16,0-38.4C144,288.96,144,217.28,184.96,173.76z"/>
	</g>
</g>
<g>
	<g>
		<circle cx="256.64" cy="255.68" r="51.2"/>
	</g>
</g>
<g>
</g>
<g>
</g>
<g>
</g>
<g>
</g>
<g>
</g>
<g>
</g>
<g>
</g>
<g>
</g>
<g>
</g>
<g>
</g>
<g>
</g>
<g>
</g>
<g>
</g>
<g>
</g>
<g>
</g>
</svg>
